<svg width="60" height="60" viewBox="0 0 60 60" fill="none" xmlns="http://www.w3.org/2000/svg">
<g clip-path="url(#clip0_1_2)">
<path d="M60 46.535C60.0009 48.3035 59.6533 50.0549 58.9769 51.6889C58.3006 53.323 57.3088 54.8077 56.0582 56.0582C54.8077 57.3088 53.323 58.3006 51.6889 58.9769C50.0549 59.6533 48.3035 60.0009 46.535 60H13.465C9.89394 59.9997 6.46922 58.581 3.9441 56.0559C1.41898 53.5308 0.000265181 50.1061 0 46.535L0 13.465C0.000265181 9.89394 1.41898 6.46922 3.9441 3.9441C6.46922 1.41898 9.89394 0.000267003 13.465 1.82159e-06H46.535C48.3035 -0.000918284 50.0549 0.346736 51.6889 1.02309C53.323 1.69944 54.8077 2.69123 56.0582 3.94176C57.3088 5.19228 58.3006 6.67702 58.9769 8.31108C59.6533 9.94515 60.0009 11.6965 60 13.465V46.535Z" fill="#891818"/>
<path fill-rule="evenodd" clip-rule="evenodd" d="M13.519 40.687V19.314C13.554 19.314 13.589 19.302 13.619 19.302C17.08 19.302 20.541 19.29 24.019 19.314C25.156 19.296 26.284 19.5185 27.329 19.967C28.1342 20.2969 28.8355 20.8382 29.3586 21.5336C29.8817 22.2291 30.2073 23.0529 30.301 23.918C30.4597 24.8944 30.3755 25.8948 30.056 26.831C29.7203 27.7578 29.0515 28.5265 28.18 28.987C28.052 29.057 27.912 29.138 27.772 29.22C27.8306 29.2515 27.8932 29.2751 27.958 29.29C28.736 29.5758 29.423 30.065 29.9477 30.7066C30.4723 31.3482 30.8153 32.1188 30.941 32.938C31.2345 34.3357 31.054 35.7913 30.428 37.075C30.0106 37.977 29.3739 38.7599 28.5759 39.3523C27.7779 39.9447 26.8441 40.3276 25.86 40.466C24.9587 40.6153 24.0466 40.6892 23.133 40.687H13.519ZM18.46 36.969C18.507 36.969 18.542 36.981 18.577 36.981C20.077 36.981 21.577 36.993 23.077 36.969C23.5349 36.9628 23.9914 36.916 24.441 36.829C24.9363 36.7553 25.3959 36.5278 25.7548 36.1785C26.1137 35.8293 26.3538 35.3761 26.441 34.883C26.5297 34.4896 26.561 34.0854 26.534 33.683C26.5316 33.2054 26.3782 32.7407 26.0956 32.3556C25.8131 31.9705 25.4159 31.6846 24.961 31.539C24.4665 31.3674 23.9464 31.2808 23.423 31.283C21.791 31.271 20.16 31.271 18.528 31.271C18.505 31.271 18.493 31.283 18.458 31.283L18.46 36.969ZM18.46 27.739H18.553C20.068 27.739 21.595 27.751 23.121 27.739C23.8131 27.7581 24.4987 27.6015 25.114 27.284C25.3354 27.1728 25.5303 27.0154 25.6856 26.8223C25.8409 26.6292 25.9529 26.4051 26.014 26.165C26.1231 25.7428 26.151 25.3036 26.096 24.871C26.0691 24.4938 25.9224 24.1351 25.6771 23.8473C25.4319 23.5594 25.1011 23.3575 24.733 23.271C24.0413 23.0878 23.3274 23.0016 22.612 23.015C21.283 23.003 19.943 23.015 18.612 23.015H18.484C18.46 24.604 18.46 26.166 18.46 27.739Z" fill="white"/>
<path fill-rule="evenodd" clip-rule="evenodd" d="M47.886 33.496H36.733C36.756 33.717 36.768 33.939 36.803 34.16C36.855 34.5912 36.973 35.0118 37.153 35.407C37.3828 35.8881 37.7272 36.3055 38.156 36.6225C38.5847 36.9394 39.0847 37.1463 39.612 37.225C40.2273 37.3551 40.8634 37.351 41.477 37.213C41.9109 37.1271 42.3197 36.944 42.6728 36.6777C43.0259 36.4113 43.3141 36.0686 43.516 35.675C43.5336 35.6354 43.5636 35.6025 43.6015 35.5814C43.6394 35.5603 43.683 35.5521 43.726 35.558H47.688C47.641 35.768 47.595 35.978 47.548 36.164C47.2973 36.9198 46.8789 37.609 46.324 38.18C45.2124 39.4367 43.6779 40.2414 42.012 40.441C40.6836 40.6575 39.3243 40.5859 38.026 40.231C36.67 39.8598 35.4385 39.1314 34.46 38.122C33.6974 37.2884 33.1809 36.2596 32.968 35.15C32.5181 33.2138 32.5785 31.194 33.143 29.288C33.4888 28.0294 34.1967 26.9002 35.1787 26.0404C36.1608 25.1807 37.3737 24.6283 38.667 24.452C40.3653 24.1142 42.1257 24.2882 43.725 24.952C45.179 25.5682 46.3566 26.696 47.035 28.122C47.5054 29.0459 47.7756 30.0586 47.828 31.094C47.875 31.852 47.875 32.621 47.898 33.394C47.8872 33.4269 47.8831 33.4616 47.886 33.496V33.496ZM43.714 30.851C43.714 30.828 43.726 30.804 43.714 30.781C43.702 30.629 43.679 30.49 43.656 30.338C43.5881 29.7877 43.3708 29.2666 43.0278 28.831C42.6848 28.3954 42.229 28.062 41.71 27.867C41.1391 27.646 40.5243 27.5621 39.915 27.622C39.3314 27.6328 38.764 27.8155 38.2837 28.1473C37.8034 28.479 37.4317 28.945 37.215 29.487C37.0889 29.8073 36.9801 30.1341 36.889 30.466C36.854 30.594 36.842 30.722 36.819 30.851H43.714Z" fill="white"/>
<path fill-rule="evenodd" clip-rule="evenodd" d="M35.953 22.67V20.199H44.542V22.67H35.953Z" fill="white"/>
</g>
<defs>
<clipPath id="clip0_1_2">
<rect width="60" height="60" fill="white"/>
</clipPath>
</defs>
</svg>
