<svg width="60" height="60" viewBox="0 0 60 60" fill="none" xmlns="http://www.w3.org/2000/svg">
<g clip-path="url(#clip0_1_11)">
<path d="M60 46.535C59.9997 50.1061 58.581 53.5308 56.0559 56.0559C53.5308 58.581 50.1061 59.9997 46.535 60H13.465C9.89451 59.9979 6.47087 58.5786 3.94615 56.0539C1.42143 53.5291 0.00211946 50.1055 0 46.535L0 13.465C0.00211946 9.89451 1.42143 6.47087 3.94615 3.94615C6.47087 1.42143 9.89451 0.00211946 13.465 0L46.535 0C50.1055 0.00211946 53.5291 1.42143 56.0539 3.94615C58.5786 6.47087 59.9979 9.89451 60 13.465V46.535Z" fill="#891818"/>
<path fill-rule="evenodd" clip-rule="evenodd" d="M35.012 19.25C36.012 19.215 37.012 19.238 38.019 19.238H38.427V13.975C37.891 13.916 37.327 13.845 36.772 13.822C35.746 13.775 34.721 13.728 33.684 13.751C32.1302 13.744 30.612 14.2169 29.337 15.105C28.6299 15.6249 28.0346 16.2816 27.5862 17.0361C27.1379 17.7905 26.8457 18.6274 26.727 19.497C26.6125 20.2454 26.5504 21.0009 26.541 21.758C26.518 22.935 26.541 24.113 26.541 25.302V25.749H21.563V31.624H26.516V46.389H32.563V31.636H37.504C37.76 29.682 38.004 27.751 38.262 25.736H37.155C35.745 25.748 32.528 25.736 32.528 25.736C32.528 25.736 32.54 22.828 32.575 21.556C32.623 19.827 33.648 19.299 35.012 19.25Z" fill="white"/>
</g>
<defs>
<clipPath id="clip0_1_11">
<rect width="60" height="60" fill="white"/>
</clipPath>
</defs>
</svg>
