<svg width="60" height="60" viewBox="0 0 60 60" fill="none" xmlns="http://www.w3.org/2000/svg">
<g clip-path="url(#clip0_1_14)">
<path d="M60 46.3C60.0008 48.0993 59.647 49.8812 58.9588 51.5437C58.2705 53.2062 57.2614 54.7168 55.9891 55.9891C54.7168 57.2614 53.2062 58.2705 51.5437 58.9588C49.8812 59.647 48.0993 60.0008 46.3 60H13.7C11.9007 60.0008 10.1188 59.647 8.45631 58.9588C6.79379 58.2705 5.2832 57.2614 4.01088 55.9891C2.73856 54.7168 1.72946 53.2062 1.04125 51.5437C0.353036 49.8812 -0.000787231 48.0993 1.31514e-06 46.3V13.711C0.00079665 10.0749 1.4456 6.58788 4.01674 4.01674C6.58788 1.4456 10.0749 0.00079512 13.711 -2.14654e-07H46.09C47.9171 -0.00131512 49.7264 0.35758 51.4147 1.05616C53.1029 1.75473 54.6369 2.77929 55.9288 4.07121C57.2207 5.36314 58.2453 6.89709 58.9438 8.58532C59.6424 10.2736 60.0013 12.0829 60 13.91V46.3Z" fill="#891818"/>
<path d="M38.361 8.228H21.639C18.0793 8.22906 14.6658 9.64361 12.1487 12.1607C9.63161 14.6778 8.21706 18.0913 8.216 21.651V38.362C8.21574 40.1242 8.56284 41.8693 9.23747 43.4973C9.91209 45.1253 10.901 46.6043 12.1477 47.8498C13.3943 49.0954 14.8742 50.083 16.5028 50.7561C18.1314 51.4293 19.8768 51.7748 21.639 51.773H38.35C40.1113 51.7735 41.8555 51.427 43.4828 50.7532C45.1101 50.0794 46.5888 49.0916 47.8342 47.8462C49.0796 46.6008 50.0674 45.1221 50.7412 43.4948C51.415 41.8675 51.7615 40.1233 51.761 38.362V21.651C51.7651 19.8891 51.4214 18.1436 50.7497 16.5147C50.0781 14.8858 49.0915 13.4055 47.8467 12.1586C46.6019 10.9116 45.1233 9.92255 43.4955 9.24807C41.8678 8.57359 40.1229 8.22695 38.361 8.228ZM47.591 36.753C47.5914 38.1765 47.3113 39.5861 46.7667 40.9014C46.2222 42.2166 45.4238 43.4116 44.4172 44.4182C43.4106 45.4248 42.2156 46.2232 40.9004 46.7677C39.5851 47.3123 38.1755 47.5924 36.752 47.592H23.248C21.8244 47.5925 20.4147 47.3125 19.0993 46.768C17.784 46.2235 16.5888 45.4252 15.5821 44.4186C14.5755 43.412 13.777 42.2169 13.2324 40.9016C12.6877 39.5863 12.4076 38.1766 12.408 36.753V23.248C12.4076 21.8244 12.6877 20.4147 13.2324 19.0994C13.777 17.7841 14.5755 16.589 15.5821 15.5824C16.5888 14.5759 17.784 13.7775 19.0993 13.233C20.4147 12.6885 21.8244 12.4085 23.248 12.409H36.753C39.6274 12.4101 42.3837 13.5524 44.4162 15.5848C46.4486 17.6173 47.5909 20.3737 47.592 23.248L47.591 36.753Z" fill="white"/>
<path d="M30.593 18.53C28.3012 18.4969 26.0513 19.1462 24.1295 20.3954C22.2078 21.6446 20.701 23.4372 19.801 25.5452C18.9009 27.6531 18.6483 29.9811 19.0751 32.2331C19.5019 34.4851 20.5889 36.5592 22.1979 38.1917C23.8069 39.8241 25.865 40.941 28.1106 41.4004C30.3562 41.8598 32.6876 41.6408 34.8084 40.7713C36.9292 39.9019 38.7434 38.4213 40.0202 36.5178C41.2971 34.6143 41.979 32.3741 41.979 30.082C41.9906 28.5757 41.7052 27.0818 41.1392 25.6859C40.5731 24.2899 39.7375 23.0192 38.6801 21.9463C37.6226 20.8735 36.3641 20.0196 34.9765 19.4334C33.5889 18.8472 32.0993 18.5402 30.593 18.53V18.53ZM30.593 37.023C29.2137 37.043 27.8595 36.6523 26.7029 35.9006C25.5462 35.1488 24.6394 34.07 24.0976 32.8013C23.5559 31.5326 23.4037 30.1315 23.6606 28.7761C23.9174 27.4208 24.5716 26.1724 25.54 25.19C26.5083 24.2075 27.7471 23.5352 29.0986 23.2588C30.4501 22.9823 31.8533 23.1141 33.1296 23.6375C34.406 24.1608 35.4979 25.0519 36.2663 26.1976C37.0348 27.3432 37.445 28.6915 37.445 30.071C37.4518 30.9775 37.28 31.8764 36.9393 32.7164C36.5986 33.5564 36.0958 34.3211 35.4594 34.9667C34.8231 35.6123 34.0658 36.1262 33.2308 36.4791C32.3958 36.8319 31.4995 37.0167 30.593 37.023V37.023Z" fill="white"/>
<path d="M44.165 18.418C44.163 18.9892 43.9918 19.5469 43.6731 20.0209C43.3543 20.4948 42.9023 20.8637 42.374 21.0809C41.8458 21.2981 41.265 21.3539 40.7051 21.2412C40.1451 21.1286 39.6311 20.8526 39.228 20.448C38.8248 20.0434 38.5505 19.5285 38.4398 18.9681C38.3291 18.4078 38.3869 17.8272 38.606 17.2997C38.825 16.7722 39.1954 16.3215 39.6704 16.0044C40.1455 15.6872 40.7038 15.518 41.275 15.518C41.6554 15.518 42.032 15.5931 42.3833 15.7389C42.7345 15.8848 43.0536 16.0986 43.3221 16.368C43.5906 16.6374 43.8033 16.9572 43.9479 17.309C44.0925 17.6608 44.1663 18.0376 44.165 18.418V18.418Z" fill="white"/>
</g>
<defs>
<clipPath id="clip0_1_14">
<rect width="60" height="60" fill="white"/>
</clipPath>
</defs>
</svg>
