<svg width="60" height="60" viewBox="0 0 60 60" fill="none" xmlns="http://www.w3.org/2000/svg">
<g clip-path="url(#clip0_1_8)">
<path d="M60 46.535C59.9997 50.1061 58.581 53.5308 56.0559 56.0559C53.5308 58.581 50.1061 59.9997 46.535 60H13.465C9.89451 59.9979 6.47087 58.5786 3.94615 56.0539C1.42143 53.5291 0.00211946 50.1055 0 46.535L0 13.465C0.00211946 9.89451 1.42143 6.47087 3.94615 3.94615C6.47087 1.42143 9.89451 0.00211946 13.465 0L46.535 0C50.1055 0.00211946 53.5291 1.42143 56.0539 3.94615C58.5786 6.47087 59.9979 9.89451 60 13.465V46.535Z" fill="#891818"/>
<path fill-rule="evenodd" clip-rule="evenodd" d="M16.594 41.021C15.9953 40.841 15.4481 40.5208 14.9979 40.0871C14.5476 39.6534 14.2073 39.1186 14.005 38.527C12.887 35.474 12.557 22.701 14.711 20.184C15.4229 19.3383 16.4362 18.8031 17.536 18.692C23.35 18.074 41.346 18.156 43.418 18.902C43.9965 19.0893 44.5254 19.4045 44.9655 19.8241C45.4055 20.2437 45.7455 20.7571 45.96 21.326C47.184 24.484 47.231 35.975 45.795 39.017C45.4123 39.8134 44.7687 40.4549 43.971 40.835C41.805 41.968 19.455 41.957 16.594 41.021ZM25.845 35.031L36.332 29.647L25.845 24.228V35.031Z" fill="white"/>
</g>
<defs>
<clipPath id="clip0_1_8">
<rect width="60" height="60" fill="white"/>
</clipPath>
</defs>
</svg>
